SplineFontDB: 3.0
FontName: AbhayaLibre-ExtraBold
FullName: AbhayaLibre
FamilyName: AbhayaLibre
Weight: ExtraBold
Copyright: Copyright (c) 1997-2015 Pushpananda Ekanayake (http://isiwara.lk), Copyright (c) 2015 mooniak (http://mooniak.com)\n
Version: 1.0
ItalicAngle: 0
UnderlinePosition: -102
UnderlineWidth: 51
Ascent: 819
Descent: 205
sfntRevision: 0x00010000
LayerCount: 2
Layer: 0 0 "Back"  1
Layer: 1 0 "Fore"  0
XUID: [1021 839 2092278351 9648478]
FSType: 0
OS2Version: 3
OS2_WeightWidthSlopeOnly: 0
OS2_UseTypoMetrics: 1
CreationTime: 1429518268
ModificationTime: 1438277945
PfmFamily: 17
TTFWeight: 400
TTFWidth: 5
LineGap: 94
VLineGap: 0
Panose: 2 0 8 3 0 0 0 0 0 0
OS2TypoAscent: 819
OS2TypoAOffset: 0
OS2TypoDescent: -205
OS2TypoDOffset: 0
OS2TypoLinegap: 94
OS2WinAscent: 918
OS2WinAOffset: 0
OS2WinDescent: 205
OS2WinDOffset: 0
HheadAscent: 918
HheadAOffset: 0
HheadDescent: -205
HheadDOffset: 0
OS2SubXSize: 665
OS2SubYSize: 716
OS2SubXOff: 0
OS2SubYOff: 143
OS2SupXSize: 665
OS2SupYSize: 716
OS2SupXOff: 0
OS2SupYOff: 491
OS2StrikeYSize: 51
OS2StrikeYPos: 265
OS2Vendor: 'PfEd'
OS2CodePages: 00000001.00000000
OS2UnicodeRanges: 00000002.00000000.00000000.00000000
Lookup: 4 0 0 "'akhn' Akhand in Sinhala lookup 0"  {"'akhn' Akhand in Sinhala lookup 0 subtable"  } ['akhn' ('sinh' <'dflt' > ) ]
Lookup: 4 0 0 "'rphf' Reph Form in Sinhala lookup 1"  {"'rphf' Reph Form in Sinhala lookup 1 subtable"  } ['rphf' ('sinh' <'dflt' > ) ]
Lookup: 4 0 0 "'haln' Halant Forms in Sinhala lookup 2"  {"'haln' Halant Forms in Sinhala lookup 2 subtable"  } ['haln' ('sinh' <'dflt' > ) ]
Lookup: 4 0 0 "'abvs' Above Base Substitutions in Sinhala lookup 3"  {"'abvs' Above Base Substitutions in Sinhala lookup 3 subtable"  } ['abvs' ('sinh' <'dflt' > ) ]
Lookup: 4 0 0 "'abvs' Above Base Substitutions in Sinhala lookup 4"  {"'abvs' Above Base Substitutions in Sinhala lookup 4 subtable"  } ['abvs' ('sinh' <'dflt' > ) ]

StartChar: .notdef
Encoding: 65536 -1 0
Width: 512
Flags: MW
HStem: 0 51<102 410 102 461> 495 51<102 410 102 102>
VStem: 51 51<51 51 51 495> 410 51<51 495 495 495>
LayerCount: 2
Fore
SplineSet
51 0 m 1
 51 546 l 1
 461 546 l 1
 461 0 l 1
 51 0 l 1
102 51 m 1
 410 51 l 1
 410 495 l 1
 102 495 l 1
 102 51 l 1
EndSplineSet
EndChar

StartChar: si_A
Encoding: 3461 3461 3
Width: 573
GlyphClass: 2
Flags: MW
HStem: -4 39 198 33<401.5 455.5> 285 24 387 46
VStem: 33 154<125.999 181.999 125.999 203.999> 311 33.0234<308.999 308.999> 356 32<-215 311 311 313 -215 311> 384 4<203 235 203 203> 419.451 25.5488<386 393.967> 452 77<273.5 302.5>
LayerCount: 2
Fore
SplineSet
430 198 m 0xfdc0
 481 198 529 225 529 281 c 0
 529 359 445 369 445 403 c 0
 445 414 451 418 457 421 c 1
 438 418 l 1
 420 403 l 1
 419.682 400.932 419.451 394.935 419.451 393 c 0
 419.451 376 424 362 435 346 c 0
 446.789 328.853 452 314 452 291 c 0
 452 256 434 231 407 231 c 0
 396 231 391 232 384 235 c 1
 384 203 l 1
 397 200 411 198 430 198 c 0xfdc0
464 424 m 1
 439 434.999 l 1
 419 429.666 398.126 417.514 383 400 c 0
 364 378 356 350 356 313 c 2
 356 -215 l 1xfec0
 388 -215 l 1xfdc0
 388 311 l 2xfec0
 388 350 393 394 464 424 c 1
523 50.999 m 1
 523 84.999 l 1
 480 51.999 418 34.999 335 34.999 c 0
 242 34.999 187 87.999 187 163.999 c 0
 187 199.999 201 284.999 309 284.999 c 2
 344 284.999 l 1
 344.015 286.002 344.023 289.002 344.023 289.999 c 0
 344.023 381.999 295 432.999 211 432.999 c 0
 154 432.999 106 409.999 106 368.999 c 0
 106 344.659 126 327.999 148 327.999 c 0
 176 327.999 190.188 344.376 197 357.999 c 0
 203 369.999 211 386.999 244 386.999 c 0
 284 386.999 310 347.999 311 308.999 c 1
 202 308.999 l 2
 94 308.999 33 247.999 33 159.999 c 0
 33 61.999 118 -4.00098 282 -4.00098 c 0
 386 -4.00098 472 16.999 523 50.999 c 1
EndSplineSet
EndChar

StartChar: si_I
Encoding: 3465 3465 7
Width: 593
GlyphClass: 2
Flags: MW
HStem: -160.272 24.8651 -14.6465 30.0713<267.756 281.495 267.756 300.937> 54 28.9805<192.786 255.286 192.786 264.999> 97.9785 29.0215<274.666 292.258> 225 29.6836<274.204 301.333> 322 110.23
VStem: 32.7693 75.6506 172.568 66.4322 206 32 338 40 362.053 76.9666 471 73.0727
LayerCount: 2
Fore
SplineSet
273.107 15.4248 m 0xff30
 289.882 15.4248 304.879 13.3076 322.407 13.3076 c 0
 419.999 13.3076 470.999 87 470.999 162 c 0
 470.999 248 407.999 322 284.999 322 c 0
 173.999 322 108.419 273 108.419 190.135 c 0
 108.419 144 149.999 82.9805 235.572 82.9805 c 0
 274.999 82.9805 309.999 92 325.999 111 c 1
 314.999 102 299.453 97.9785 285.063 97.9785 c 0
 240.999 97.9785 205.999 132.57 205.999 173 c 0
 205.999 219.264 239.999 254.684 286.354 254.684 c 0
 343.784 254.684 377.999 218 377.999 164 c 0xfed0
 377.999 84 309.999 54 219.999 54 c 0
 112.999 54 32.7686 116.843 32.7686 220.979 c 0
 32.7686 356.9 147.999 432.23 284.186 432.23 c 0
 436.999 432.23 544.071 353.23 544.071 198.29 c 0
 544.071 92.3994 472.804 9.90527 383.999 -6 c 1
 417.359 -12.0654 439.019 -35.5645 439.019 -74.6172 c 0
 439.019 -134.438 364.215 -160.272 298.362 -160.272 c 0
 236.041 -160.272 172.567 -139.056 172.567 -75.6592 c 0
 172.567 -50.1904 191.396 -38.457 208 -38.457 c 0
 223 -38.457 239 -47.7725 239 -65 c 0
 239 -70.5488 235.331 -81.8984 235.331 -94 c 0
 235.331 -114 247 -135.407 300.489 -135.407 c 0
 339.383 -135.407 362.053 -116 362.053 -83.3779 c 0
 362.053 -44 334.405 -14.6465 267.469 -14.6465 c 0
 258.714 -14.6465 258.544 -15.0908 249 -16 c 1
 249 14 l 1
 260.679 14.9736 262.404 15.4248 273.107 15.4248 c 0xff30
287.999 225 m 0
 260.408 225 237.999 202.654 237.999 176 c 0
 237.999 148.346 261.332 127 287.999 127 c 0
 315.59 127 337.999 149.346 337.999 176 c 0
 337.999 203.654 314.666 225 287.999 225 c 0
EndSplineSet
EndChar

StartChar: si_Ii
Encoding: 3466 3466 8
Width: 528
GlyphClass: 2
Flags: MW
HStem: 0 138<185.977 280.5 173.991 315.762> 402.366 28.7402<437.372 457.935 437.372 465.776> 411 26<257.631 297.5 257.631 305.797> 472.366 28.7402<172.372 192.935 172.372 200.776> 505.581 28.0527<437.372 457.935> 575.581 28.0527<172.372 192.935>
VStem: 31 48<227 267.761> 117.02 28.3965<528.062 548.625 528.062 556.123> 219.891 28.3965<528.062 548.625> 382.02 28.3965<458.062 478.625 458.062 486.123> 406 76<241 253.002 163.5 326.5> 484.891 28.3965<458.062 478.625>
LayerCount: 2
Fore
SplineSet
410.416 468.344 m 0xdfd0
 410.416 447.781 427.091 431.106 447.653 431.106 c 0
 468.216 431.106 484.891 447.781 484.891 468.344 c 0
 484.891 488.906 468.216 505.581 447.653 505.581 c 0
 427.091 505.581 410.416 488.906 410.416 468.344 c 0xdfd0
382.02 468 m 0
 382.02 504.245 411.408 533.634 447.653 533.634 c 0
 483.898 533.634 513.287 504.245 513.287 468 c 0
 513.287 431.755 483.898 402.366 447.653 402.366 c 0
 411.408 402.366 382.02 431.755 382.02 468 c 0
145.416 538.344 m 0
 145.416 517.781 162.091 501.106 182.653 501.106 c 0
 203.216 501.106 219.891 517.781 219.891 538.344 c 0
 219.891 558.906 203.216 575.581 182.653 575.581 c 0
 162.091 575.581 145.416 558.906 145.416 538.344 c 0
117.02 538 m 0
 117.02 574.245 146.408 603.634 182.653 603.634 c 0
 218.898 603.634 248.287 574.245 248.287 538 c 0
 248.287 501.755 218.898 472.366 182.653 472.366 c 0
 146.408 472.366 117.02 501.755 117.02 538 c 0
170 422 m 0
 223.263 449.697 256 482 285 518 c 0
 316.623 557.257 338 629 388 629 c 0
 414 629 430 611 430 594 c 0
 430 574 407.641 549.698 359 509 c 0
 326.333 481.667 294 462 247 436 c 1
 252 437 253.263 437 262 437 c 0
 333 437 388 413 429.5 366.5 c 0
 465.351 326.33 482 281.004 482 225 c 0xbfb0
 482 102 383.523 0 248 0 c 0
 123.954 0 31 89.1826 31 213 c 0
 31 322.522 94.1602 382.563 170 422 c 0
79 256 m 0
 79 198 119.981 138 228 138 c 0
 333 138 406 191 406 291 c 0
 406 362 351.595 411 260 411 c 0
 182 411 79 352 79 256 c 0
EndSplineSet
EndChar

StartChar: si_U
Encoding: 3467 3467 9
Width: 651
GlyphClass: 2
Flags: MW
HStem: -161 63<336.5 404> 268 28<355 504> 383 48.5<406 422.436 344.5 436>
VStem: 32 155<47 154.5> 571 32<17.5 69>
LayerCount: 2
Fore
SplineSet
539 268 m 1
 539.049 269.675 539.075 274.342 539.075 276 c 0
 539.075 370 468.872 431.5 376 431.5 c 0
 313 431.5 267 410 267 365 c 0
 267 345.183 281 324 313 324 c 0
 340 324 354.454 342.05 362 354.5 c 0
 375.699 377.104 396 383 416 383 c 0
 456 383 501 346 504 296 c 1
 264 296 l 2
 121 296 32 210 32 99 c 0
 32 -62 177 -161 328 -161 c 0
 480 -161 603 -64 603 69 c 1
 571 69 l 1
 571 -34 476 -98 394 -98 c 0
 279 -98 187 -23 187 117 c 0
 187 210.639 231 268 355 268 c 2
 539 268 l 1
EndSplineSet
EndChar

StartChar: si_E
Encoding: 3473 3473 15
Width: 595
GlyphClass: 2
Flags: MW
HStem: 0 140<239 355.5 239 367.5> 275 27<129 129 129 259 259 261 16 291 210.78 233 233 259 259 261 16 295> 359 47<372 403.5 372 404.5> 389 42.5<181.5 211.5>
VStem: 45 63<178 180.36> 261.086 34.0605<307.021 326.5 288.361 332> 283 34<463.333 503 463.333 505> 496 49<255.5 280 181 326>
LayerCount: 2
Fore
SplineSet
496 301 m 0xdd
 496 351 484 387 471 410 c 1
 456 379 426 359 383 359 c 0
 319.845 359 283 414 283 480 c 0xeb
 283 530 298 566 325 597 c 1
 386 564 456.965 492.242 493 430 c 0
 531.783 363.012 545 315 545 245 c 0
 545 117 459 0 276 0 c 0
 155 0 45 46 45 165 c 0
 45 195.721 54.7754 227.831 78 248 c 0
 94.127 262.005 113 273 139 278 c 1
 172.761 290.199 213.875 302 251 302 c 2
 261 302 l 1
 261.082 304.041 261.086 306.041 261.086 308 c 0
 261.086 356 230 389 193 389 c 0xdd
 170 389 152.745 371.085 147.5 355 c 0
 140 332 128 321 102 321 c 0
 84 321 64 333.368 64 359 c 0xed
 64 406 114 431.5 169 431.5 c 0
 257 431.5 295.146 363 295.146 290 c 0
 295.146 286.722 295.101 278.388 295 275 c 1
 233 275 l 2
 188.56 275 158.285 267.554 135 253 c 0
 119 243 108 227 108 207 c 0
 108 149 199 140 279 140 c 0
 432 140 496 210 496 301 c 0xdd
129 275 m 1
 58 274 32 270.667 16 268 c 1
 16 302 l 1
 259 302 l 1
 291 275 l 1
 129 275 l 1
449 441 m 1
 419 485 372 529 334 557 c 1
 326 540 317 518 317 488 c 0
 317 438.667 350 406 394 406 c 0
 413 406 439 416 449 441 c 1
EndSplineSet
EndChar

StartChar: si_Os
Encoding: 3476 3476 18
Width: 636
GlyphClass: 2
Flags: MW
HStem: 0 138<165 221> 225 31<267.5 321.5 267.5 331.5> 285 29.9404<308.26 333.74 308.26 340> 407.06 26.9404<308.26 333.74> 553 26<248.5 378>
VStem: 30 44<238.5 278> 170 31<310.5 338.507 310.5 341.61> 243 31.9404<348.26 373.74 348.26 381> 291 28<205 208 187.5 208> 389 31<303.5 326.5> 531 59<276.5 342.557 190.25 380>
LayerCount: 2
Fore
SplineSet
274.94 361 m 0
 274.94 335.52 295.52 314.94 321 314.94 c 0
 346.48 314.94 367.06 335.52 367.06 361 c 0
 367.06 386.48 346.48 407.06 321 407.06 c 0
 295.52 407.06 274.94 386.48 274.94 361 c 0
388 331 m 1
 383 316 362 285 318 285 c 0
 271.344 285 243 322 243 360 c 0
 243 402 274 434 322 434 c 0
 384 434 420 389 420 330 c 0
 420 265 367 225 296 225 c 0
 222 225 170 264 170 339 c 0
 170 344.22 170.275 362.935 170.275 372 c 0
 170.275 392 164 403 145 403 c 0
 98 403 74 329 74 279 c 0
 74 198 126 138 204 138 c 0
 273 138 291 171.667 291 205 c 2
 291 208 l 1
 319 208 l 1
 319 204 l 2
 319 171 342 139 403 139 c 0
 498.559 139 531 230 531 323 c 0
 531 437 458 553 298 553 c 0
 199 553 142 522 96 466 c 1
 62 466 l 1
 107 531 173 579 300 579 c 0
 488 579 590 431.114 590 254 c 0
 590 126.501 543 0 406 0 c 0
 365 0 321 16 305 55 c 1
 283 15 246 0 196 0 c 0
 78 0 30 127 30 224 c 0
 30 332 74 431.5 148 431.5 c 0
 167.007 431.5 175 428 182 423 c 0
 192.609 415.422 200.873 401 200.873 371 c 0
 200.873 357 201 340.015 201 337 c 0
 201 284 240 256 295 256 c 0
 348 256 389 281 389 326 c 0
 389 327 389 329 388 331 c 1
EndSplineSet
EndChar

StartChar: si_Ka
Encoding: 3482 3482 21
Width: 746
GlyphClass: 2
Flags: MW
HStem: -1 31 -1 141<192 225.011 374 397.5> 73 87<75.8374 145> 287 27<291.333 351.5> 348 86<409.5 413.5> 386 47<151 162.174 107.682 170>
VStem: 21 28<11 22> 29 84 193 27<355 361.5> 280 28<214 215 215 216 184.5 216> 443 72<186.5 188 96.9238 225> 597 104<151 205.5>
LayerCount: 2
Fore
SplineSet
113 323 m 0x35f0
 104.732 305.546 87 297 72 297 c 0
 35 297 29 328 29 340 c 0
 29 394.099 79.3633 433 136 433 c 0x35f0
 188.348 433 220 399 220 358 c 0
 220 352 220 349 219 341 c 1
 278 396 366 434 453 434 c 0
 603 434 701 328 701 192 c 0
 701 110 659 0 553 -1 c 0
 543 -1.09473 521 1 504 12 c 1
 504 40 l 1
 518 33 531 30 543 30 c 0x99f0
 584 30 597 77 597 123 c 0
 597 288 469 348 358 348 c 0
 294 348 244 330 214 304 c 1
 244 312 277.667 314 305 314 c 0
 425 314 515 250 515 126 c 0
 515 67.8477 482 -1 397 -1 c 0
 351 -1 317.333 20.333 296 63 c 1
 278.667 21.667 246.021 -1 204 -1 c 0x59f0
 117 -1 120 73 87 73 c 0
 64.6748 73 52 51 49 11 c 1
 21 22 l 1x32f0
 28.6963 91.2695 74.4521 184.165 109 232 c 0
 135 268 148 280 171 304 c 0
 180 314 193 331 193 352 c 0
 193 371 182 386 158 386 c 0
 144 386 128.438 378.533 124 363 c 0
 118 342 122 342 113 323 c 0x35f0
180 268 m 1
 162.667 253.333 146.522 234.996 131 212 c 0
 104 172 101 163 91 143 c 1
 103 153 115 160 129 160 c 0x30f0
 161 160 172 140 212 140 c 0
 258 140 280 157 280 214 c 2
 280 216 l 1
 308 216 l 1
 308 215 l 2
 308 154 332 140 377 140 c 0x50f0
 418 140 443 169 443 204 c 0
 443 246 402 287 301 287 c 0
 244.333 287 204.667 280 180 268 c 1
EndSplineSet
EndChar

StartChar: si_Kha
Encoding: 3483 3483 22
Width: 630
GlyphClass: 2
Flags: MW
HStem: -1 30.334<125.043 148.957 125.043 161.5> 0 136<427 470> 116.666 31.334<125.043 148.957> 275 121<192.5 282> 574 27<249.5 369.5>
VStem: 32 38<145.5 182.5 134 252.5> 180.666 31.334<61.0435 84.9565> 347 66<190 300.572> 532 52<266.5 379.5 218 386.5>
LayerCount: 2
Fore
SplineSet
93.334 73 m 0xbf80
 93.334 49.0869 113.087 29.334 137 29.334 c 0
 160.913 29.334 180.666 49.0869 180.666 73 c 0
 180.666 96.9131 160.913 116.666 137 116.666 c 0
 113.087 116.666 93.334 96.9131 93.334 73 c 0xbf80
73 106 m 1
 82 132 107 148 137 148 c 0
 179 148 212 120 212 74 c 0
 212 37 182 -1 141 -1 c 0xbf80
 56 -1 32 108 32 183 c 0
 32 322 123.839 396 240 396 c 0
 333 396 413 343.145 413 258 c 0
 413 201 388 172 381 161 c 1
 384.333 161.667 387.333 162 390 162 c 0
 419 162 410 136 444 136 c 0
 504 136 532 215 532 318 c 0
 532 455 445 574 294 574 c 0
 205 574 140 540 99 470 c 1
 64 470 l 1
 108.667 553.333 186 601 298 601 c 0
 464 601 584 473 584 286 c 0
 584 150 524 0 416 0 c 0x5f80
 352 0 348 54 321 54 c 0
 308 54 284 34 242 -21 c 1
 202 -18 l 1
 215.333 -4.66699 244.086 34.0254 286 84 c 0
 338 146 347 180 347 200 c 0
 347 235 328 275 236 275 c 0
 149 275 70 225 70 140 c 0
 70 128 70 118 73 106 c 1
EndSplineSet
EndChar

StartChar: si_Ga
Encoding: 3484 3484 23
Width: 636
GlyphClass: 2
Flags: MW
HStem: -2 142<176.5 240.5 176.5 251.5> -1 28<364 414 358 434.526> 220 26<266.667 272.5> 320 111.5<349 412> 405.45 26.0498<180 221.977 164.5 223.655>
VStem: 34 54<222 268.5> 216 28<194 195.667> 294 58<96 203.5> 498 88<156 215>
LayerCount: 2
Fore
SplineSet
233 405 m 1xaf80
 233 431 l 1
 228.954 431.25 223.953 431.5 220 431.5 c 0
 109 431.5 34 330 34 207 c 0
 34 96 97 -2 208 -2 c 0xaf80
 295 -2 352 56 352 136 c 0
 352 202 320 246 270 246 c 0
 263.333 246 256 244 250 241 c 1
 257 277 292 320 363 320 c 0
 461 320 498 255 498 175 c 0
 498 110 466 27 362 27 c 0
 354 27 346 28 338 29 c 1
 338 1 l 1
 348.667 -0.333008 359 -1 369 -1 c 0
 500.053 -1 586 95 586 217 c 0
 586 332 522 431.5 410 431.5 c 0x7780
 288 431.5 225 321 216 194 c 1
 244 194 l 1
 244 197.333 245 208 246 214 c 1
 251 217 258 220 269 220 c 0
 276 220 294 216 294 191 c 0
 294 164 270 140 211 140 c 0
 142 140 88 186 88 258 c 0
 88 329 138 405.45 222 405.45 c 0
 225.311 405.45 229.645 405.284 233 405 c 1xaf80
EndSplineSet
EndChar

StartChar: si_Gha
Encoding: 3485 3485 24
Width: 677
GlyphClass: 2
Flags: MW
HStem: -1 139<172.5 202 172.5 208.333> 200 32<310.805 352.984 310.805 354> 280 28<147 147 147 276 276 278 5 309 194 224 224 276 276 278 5 313> 288 28<432 462 432 491.5> 390 42<445 485.5>
VStem: 51 61<179 190> 278.086 35.0605<311.021 331 291.361 333.5> 392 31<149 152.5 149 152.5> 537 42<340.333 360> 569 59<189 193.541 112 232.5>
LayerCount: 2
Fore
SplineSet
224 280 m 2xef40
 164 280 112 245 112 201 c 0
 112 157 152 138 193 138 c 0
 211 138 233 140 240 146 c 1
 241 153 241.245 159.183 243.575 168 c 0
 254.552 209.544 289.61 232 332 232 c 0
 373.968 232 407.468 211.808 418.832 173 c 0
 421.549 163.724 423 156 423 149 c 1
 431 142 450.705 138 482 138 c 0
 526 138 569 164 569 214 c 0xef40
 569 251 535 288 448 288 c 0
 412 288 386 286 353 279 c 1
 352.814 282.706 352.717 287.374 352.717 291 c 0
 352.717 375 400 432 478 432 c 0
 532 432 579 405 579 351 c 0xdf80
 579 329.667 569 308 550 297 c 1
 597.333 273.667 628 221.082 628 166 c 0
 628 58 555.929 0 464 0 c 0
 440 0 411.667 4 381 12 c 1
 378 16 377 40.333 377 47 c 0
 377 84 392 95 392 134 c 0
 392 171 376 200 332 200 c 0
 288 200 271 177 271 134 c 0
 271 96 282 95 282 47 c 0
 282 39.667 281 17 278 11 c 1
 247 2 217.667 -1 199 -1 c 0
 108.174 -1 51 76 51 154 c 0
 51 226 92 267 144 283 c 1
 177.761 295.199 232 308 269 308 c 2
 278 308 l 1
 278.082 310.041 278.086 310.041 278.086 312 c 0
 278.086 355 250 387 213 387 c 0
 190 387 175.573 374.805 168.5 355 c 0
 161 334 147 320 121 320 c 0
 98 320 82 333.368 82 359 c 0
 82 406 132 431.5 187 431.5 c 0
 275 431.5 313.146 369 313.146 293 c 0
 313.146 289.722 313.101 283.388 313 280 c 1
 224 280 l 2xef40
147 280 m 1
 76 279 21 275.667 5 273 c 1
 5 308 l 1
 276 308 l 1
 309 280 l 1
 147 280 l 1
385 310 m 1
 398 314 419 316 445 316 c 0
 479 316 507 312 521 307 c 1
 530 314 537 326 537 344 c 0xdf80
 537 376 500 390 471 390 c 0
 419 390 389.667 364.667 385 310 c 1
EndSplineSet
EndChar

StartChar: si_Ca
Encoding: 3488 3488 27
Width: 597
GlyphClass: 2
Flags: MW
HStem: 0 140<253 374.5 253 386.5> 274 28<148 148 148 282 282 284 13 315 243.5 271 271 282 282 284 13 319> 389 42.5<203 232 160.5 236> 551 26<263.333 370.249>
VStem: 64 64<105.5 213.5> 284.086 35.0605<307.021 333> 517 58<273.5 358.5 194 385.5>
LayerCount: 2
Fore
SplineSet
319 274 m 1
 271 274 l 2
 216 274 184 266 161 254 c 0
 132.713 239.241 128 220 128 207 c 0
 128 158 208 140 298 140 c 0
 451 140 517 218 517 329 c 0
 517 442 437.498 551 303 551 c 0
 223.667 551 163 522 119 470 c 1
 84 470 l 1
 132.667 540 205 577 303 577 c 0
 463.151 577 575 443 575 274 c 0
 575 114 478 0 295 0 c 0
 174 0 64 46 64 165 c 0
 64 195.721 73.7754 227.831 97 248 c 0
 113.127 262.005 132 273 158 278 c 1
 191.761 290.199 232.875 302 270 302 c 2
 284 302 l 1
 284.082 304.041 284.086 306.041 284.086 308 c 0
 284.086 358 252 389 220 389 c 0
 186 389 173 371 167.5 355 c 0
 160.951 335.948 150 320 121 320 c 0
 101 320 83 333.368 83 359 c 0
 83 406 133 431.5 188 431.5 c 0
 276 431.5 319.146 376 319.146 290 c 0
 319.146 286.722 319.101 277.388 319 274 c 1
148 274 m 1
 77 273 29 269.667 13 267 c 1
 13 302 l 1
 282 302 l 1
 315 274 l 1
 148 274 l 1
EndSplineSet
EndChar

StartChar: si_Cha
Encoding: 3489 3489 28
Width: 598
GlyphClass: 2
Flags: MW
HStem: 0 139<240.615 345 240.615 360.843> 186 27<410.5 451.5 410.5 463.5> 287 25<172.5 217.055 152 233.5> 384 48<176.995 187.446 130.449 204> 407 210<381 551>
VStem: 33 60<187.5 209.601> 235 31<327.667 345.5> 286 29<321.5 356.5 321.5 360> 338.515 30.0029<254.5 295.5> 489 60<182.5 198 106.5 227.5> 500 31<303 353.5>
LayerCount: 2
Fore
SplineSet
473 291 m 0xefa0
 516.536 270.96 549 228 549 168 c 0
 549 45 423.686 0 298 0 c 0
 160.148 0 33 44 33 170 c 0
 33 249.202 96 312 208 312 c 0
 226.11 312 225 312 233 311 c 1
 234.333 317.667 235 324.333 235 331 c 0
 235 360 220 384 188 384 c 0
 165.99 384 152.896 373.048 146 358 c 0
 135 334 125 319 97 319 c 0
 72 319 56 334.667 56 360 c 0
 56 408.774 106.898 432 154 432 c 0
 220.893 432 266 393.393 266 326 c 0
 266 314 264.667 298.333 262 285 c 1
 250 286 238 287 229 287 c 0
 116 287 93 241 93 217 c 0
 93 158 189.23 139 292 139 c 0
 398 139 489 155 489 210 c 0xf7c0
 489 245 470 286 355 286 c 0
 333 286 305 283 291 282 c 1
 289 289 286 308 286 319 c 0
 286 401 336 435 406 435 c 0
 478 435 531 402 531 325 c 0
 531 274 503 186 424 186 c 0
 384 186 338.515 206 338.515 278 c 0
 338.515 313 341.995 334.744 349 364 c 0
 366 435 399.868 504.241 443 556 c 0
 478 598 515 617 541 617 c 0
 561 617 568 603 568 593 c 0
 568 556 526.615 562.436 471 513 c 0
 417 465 368.518 380 368.518 277 c 0
 368.518 232 395 213 426 213 c 0
 477 213 500 283 500 323 c 0
 500 384 464 407 402 407 c 0
 360 407 315 389 315 324 c 0
 315 319 315 314 316 310 c 1
 323 311 334 312.319 350 312.319 c 0
 388 312.319 433.868 309.014 473 291 c 0xefa0
EndSplineSet
EndChar

StartChar: si_Ja
Encoding: 3490 3490 29
Width: 598
GlyphClass: 2
Flags: MW
HStem: 0 140<240.615 345 240.615 360.843> 288 23<349.5 401.5 349.5 412.5> 386 46<175.995 187.446 130.449 205.5> 406 28<384.5 437>
VStem: 33 62<186 209.601> 235 31<327.667 342.5> 293 31<330.333 354 330.333 370> 363 29<353.5 403 353.5 414.5> 485 64<190.5 225.5 106.5 232> 489 31<341.758 371.496>
LayerCount: 2
Fore
SplineSet
485 220 m 0xdf80
 485 161 398 140 292 140 c 0
 189.23 140 95 157 95 215 c 0
 95 242 110 287 229 287 c 0
 238 287 250 286 262 285 c 1
 264.667 298.333 266 314 266 326 c 0
 266 393.393 220.893 432 154 432 c 0
 106.898 432 56 408.774 56 360 c 0
 56 334.667 72 320 97 320 c 0
 120 320 132 330 143 354 c 0
 149.896 369.048 164.99 386 187 386 c 0
 224 386 235 354 235 331 c 0
 235 324.333 234.333 317.667 233 311 c 1
 225 312 226.11 312 208 312 c 0
 96 312 33 249.202 33 170 c 0
 33 44 160.148 0 298 0 c 0
 423.686 0 549 45 549 168 c 0xef80
 549 283 447 311 356 311 c 0
 343 311 335 310 327 309 c 1
 325 318.333 324 326.667 324 334 c 0
 324 374 344 406 415 406 c 0
 459 406 489 387.991 489 355 c 0
 489 328.516 468 311 439 311 c 0
 409 311 392 337 392 370 c 0
 392 436 432 485 464 507 c 0
 521.688 546.661 568 555 568 587 c 0
 568 600 562 618 533 618 c 0
 514 618 481 605 451 577 c 0
 407.381 536.289 363 460 363 369 c 0
 363 331 384 285 438 285 c 0
 503 285 520 324.446 520 353 c 0xdf40
 520 412 460 434 419 434 c 0
 350 434 293 409 293 331 c 0
 293 316.333 295.333 301 300 285 c 1
 314 286 333 288 355 288 c 0
 470 288 485 244 485 220 c 0xdf80
EndSplineSet
EndChar

StartChar: si_Tta
Encoding: 3495 3495 34
Width: 603
GlyphClass: 2
Flags: MW
HStem: -1.15399 141.154 362.352 29.0271 551.085 25.9949
VStem: 31.596 66.3083 489.086 67.9208
LayerCount: 2
Fore
SplineSet
97.9043 261.757 m 0
 97.9043 321 154 362.353 234 362.353 c 0
 266 362.353 293.887 355.912 321 343.001 c 1
 321 375.001 l 1
 291.655 386.087 259 391.38 232 391.38 c 0
 126.17 391.38 31.5957 322.619 31.5957 207.87 c 0
 31.5957 80.6396 132.918 -1.15332 285.242 -1.15332 c 0
 447.244 -1.15332 557.007 115.251 557.007 271.184 c 0
 557.007 433.237 446.243 577.08 273.087 577.08 c 0
 176.649 577.08 103.928 539.372 57 470 c 1
 93 470 l 1
 135 523 194.708 551.085 275.44 551.085 c 0
 418 551.085 489.086 430 489.086 325.66 c 0
 489.086 201 401 140 278 140 c 0
 188 140 97.9043 174 97.9043 261.757 c 0
EndSplineSet
EndChar

StartChar: si_Dda
Encoding: 3497 3497 36
Width: 647
GlyphClass: 2
Flags: MW
HStem: 0 140<176.495 224.5> 285 30<14.999 124.999 124.999 124.999 224 257.999 14.999 295> 388.268 43.8994<192.499 202.64 142.19 213.999> 555.09 26.9304
VStem: 45.8805 63.5111 297 31<180.5 221 200 221> 539.144 58.8438<246.609 351.111 184.111 357.609>
LayerCount: 2
Fore
SplineSet
73.2109 373.122 m 0
 73.2109 351 88.999 335.264 112.999 335.264 c 0
 128.999 335.264 143.999 342 153.999 360 c 0
 169.202 387.365 187.999 388.268 196.999 388.268 c 0
 230.999 388.268 255.999 350 257.999 315 c 1
 14.999 315 l 1
 14.999 285 l 1
 124.999 285 l 1
 71.0479 261.198 45.8799 212 45.8799 162 c 0
 45.8799 81.1904 97.9834 0 199 0 c 0
 250 0 283.406 21.6865 313 59 c 1
 334.631 28.5205 363.028 -0.0253906 427.656 -0.0253906 c 0
 547.008 -0.0253906 597.987 110 597.987 258.222 c 0
 597.987 444 478.636 582.021 304.119 582.021 c 0
 209.737 582.021 127.258 545.934 73 468 c 1
 109 468 l 1
 154 522 217.966 555.09 298.465 555.09 c 0
 460 555.09 539.144 422 539.144 293.218 c 0
 539.144 200 489 140 414 140 c 0
 353 140 328 164 328 200 c 2
 328 221 l 1
 297 221 l 1
 297 200 l 2
 297 161 267 140 203 140 c 0
 149.99 140 109.392 164 109.392 210 c 0
 109.392 234 130.957 285 224 285 c 2
 295 285 l 1
 295 384 242 432.167 163.279 432.167 c 0
 121.101 432.167 73.2109 413 73.2109 373.122 c 0
EndSplineSet
EndChar

StartChar: si_Ddha
Encoding: 3498 3498 37
Width: 647
GlyphClass: 2
Flags: MW
HStem: 0 140 285 30 363 33 388.268 43.8994
VStem: 45.8805 63.5111 256 37 297 31 318 32 537.144 60.8438
LayerCount: 2
Fore
SplineSet
359 603 m 1xed80
 473 558 597.989 402.001 597.989 256.223 c 0
 597.989 110.001 547.01 -0.0244141 427.658 -0.0244141 c 0
 363.03 -0.0244141 334.633 28.5215 313.002 59.001 c 1
 283.408 21.6875 250.002 0.000976562 199.002 0.000976562 c 0
 97.9854 0.000976562 45.8818 81.1914 45.8818 162.001 c 0
 45.8818 212.001 71.0498 261.199 125.001 285.001 c 1
 15.001 285.001 l 1
 15.001 315.001 l 1
 256.001 315.001 l 1
 255.001 354.001 229.001 388.269 197.001 388.269 c 0
 188.001 388.269 169.204 387.366 154.001 360.001 c 0
 144.001 342.001 129.001 335.265 113.001 335.265 c 0
 89.001 335.265 73.2119 351.001 73.2119 373.123 c 0
 73.2119 413.001 121.102 432.168 163.28 432.168 c 0
 242.001 432.168 293.001 382.001 293.001 285.001 c 1
 224.001 285.001 l 2
 130.958 285.001 109.393 234.001 109.393 210.001 c 0
 109.393 164.001 149.991 140.001 203.001 140.001 c 0
 267.001 140.001 297.001 161.001 297.001 200.001 c 2
 297.001 221.001 l 1
 328.001 221.001 l 1
 328.001 200.001 l 2xde80
 328.001 164.001 353.001 140.001 414.001 140.001 c 0
 489.001 140.001 537.145 200.001 537.145 293.219 c 0
 537.145 336.22 525.756 377.127 508.313 413.661 c 1
 491.34 388.064 464.799 363 422 363 c 0
 356 363 318 411 318 477 c 0
 318 541 348 586 359 603 c 1xed80
491.291 445.028 m 1
 456.371 502.289 408.577 544.996 374.001 562.001 c 1
 361.001 547.001 350.001 510.001 350.001 481.001 c 0
 350.001 424.001 378.001 396.001 424.001 396.001 c 0xed80
 454.906 396.001 477.874 420.144 491.291 445.028 c 1
EndSplineSet
EndChar

StartChar: si_Nna
Encoding: 3499 3499 38
Width: 963
GlyphClass: 2
Flags: MW
HStem: -0.787109 50.7871 0 129<266 396 266 442.5> 36.4297 32.9883 170 37.6982<336.544 341.5> 176.606 22.3936<295 376.929> 254.582 30.9883 286 61.7871 404 29<313 399.5 306 407.5> 444 84
VStem: 170 32<259.5 331.5 259.5 338> 265.606 30.0918<248.544 279.456 248.544 287.929> 408.302 32.0918<248.544 279.456> 492 92<237 293> 548.841 35.1592<163.5 195.42> 708.278 27.7217<81.499 191.355> 821 94.3633<131.999 206.999>
LayerCount: 2
Fore
SplineSet
337 129 m 0x57fb
 455 129 492 204 492 270 c 0
 492 316 460 404 355 404 c 0
 271 404 202 366 202 297 c 0
 202 222 268 199 322 199 c 1x4ffb
 405 194 l 1
 384 180 362 170 321 170 c 0
 232 170 170 216.993 170 292 c 0
 170 384 253 433 359 433 c 0
 440 433 584 390 584 213 c 0
 584 114 520 0 365 0 c 0
 167 0 180 179 99 179 c 0
 71 179 54 166 33 152 c 1
 22 178 l 1
 232 322 505 453 660 501 c 0
 720.724 519.805 762 528 805 528 c 0
 844 528 863 506 863 485 c 0
 863 469.667 854.227 447.02 819 444 c 0
 784 441 679.61 433.213 600 416 c 0
 415 376 247 288 116 206 c 1
 177 206 195 129 337 129 c 0x57fb
265.606 264 m 0
 265.606 311.858 305.142 351.394 353 351.394 c 0
 400.858 351.394 440.394 311.858 440.394 264 c 0
 440.394 216.142 400.858 176.606 353 176.606 c 0
 305.142 176.606 265.606 216.142 265.606 264 c 0
295.698 264 m 0
 295.698 233.089 321.089 207.698 352 207.698 c 0x17f3
 382.911 207.698 408.302 233.089 408.302 264 c 0
 408.302 294.911 382.911 320.302 352 320.302 c 0
 321.089 320.302 295.698 294.911 295.698 264 c 0
548.841 161 m 0x27f7
 548.841 229.841 591.457 285.569 645 285.569 c 0
 678.232 285.569 702.619 273.657 718.519 251.456 c 1
 722.611 300.383 751.161 347.786 812 347.786 c 0
 882 347.786 915.363 264.757 915.363 167.999 c 0
 915.363 72.999 883 -0.788086 800 -0.788086 c 0x87f7
 748.105 -0.788086 718.596 33.0137 713.722 67.7432 c 1
 697.391 47.7451 674.145 36.4297 645 36.4297 c 0
 591.457 36.4297 548.841 92.1592 548.841 161 c 0x27f7
578.722 161.999 m 0
 578.722 110.835 606.653 69.417 643 69.417 c 0x27f3
 684.411 69.417 708.278 106.259 708.278 161.999 c 0
 708.278 220.711 687.126 254.581 643 254.581 c 0
 606.653 254.581 578.722 213.163 578.722 161.999 c 0
739.438 191.222 m 1
 740.588 181.78 741.159 171.696 741.159 160.999 c 0
 741.159 144.657 739.49 129.522 736.248 115.845 c 0
 736.094 112.274 736 108.676 736 104.999 c 0
 736 57.999 768 49.999 778 49.999 c 0x87f3
 814 49.999 821 94.999 821 168.999 c 0
 821 244.999 810 285.999 780 285.999 c 0
 755.763 285.999 742.001 252.96 739.438 191.222 c 1
EndSplineSet
EndChar

StartChar: si_Nndda
Encoding: 3500 3500 39
Width: 731
GlyphClass: 2
Flags: MW
HStem: 0 140<135 327 270.495 311.5> 285 30<102 212 102 345 264.479 311 311 345 102 382> 388.268 44.7324<169.378 301> 427 6 555.09 26.9307<345.215 466.232>
VStem: 27 32<177.667 268.634 177.667 286.85> 132.881 63.5107<121.595 222> 384 31<200 221 182 221> 626.144 58.8438<246.609 351.111 184.111 357.609>
LayerCount: 2
Fore
SplineSet
160.211 373.122 m 0xef80
 160.211 413 208.101 432.167 250.279 432.167 c 0
 329 432.167 382 384 382 285 c 1
 311 285 l 2
 217.957 285 196.392 234 196.392 210 c 0
 196.392 164 243.99 140 297 140 c 0
 357 140 384 161 384 200 c 2
 384 221 l 1
 415 221 l 1
 415 200 l 2
 415 164 440 140 501 140 c 0
 576 140 626.144 200 626.144 293.218 c 0
 626.144 422 547 555.09 385.465 555.09 c 0
 304.966 555.09 241 522 196 468 c 1
 160 468 l 1
 214.258 545.934 296.737 582.021 391.119 582.021 c 0
 565.636 582.021 684.987 444 684.987 258.222 c 0
 684.987 110 634.008 -0.0253906 514.655 -0.0253906 c 0
 450.027 -0.0253906 421.631 28.5205 400 59 c 1
 370.406 21.6865 337 0 286 0 c 0
 184.983 0 132.881 81.1904 132.881 162 c 0
 132.881 212 158.049 261.198 212 285 c 1
 102 285 l 1
 102 315 l 1
 345 315 l 1
 343 350 318 388.268 284 388.268 c 0
 275 388.268 256.203 387.365 241 360 c 0
 231 342 216 335.264 200 335.264 c 0
 176 335.264 160.211 351 160.211 373.122 c 0xef80
293 427 m 1xdf80
 272 416 195 404 178 398 c 1
 106 381 59 319.268 59 218 c 0
 59 137.333 86 78 135 34 c 1
 135 0 l 1
 68.583 33.209 27 120.07 27 221 c 0
 27 352.7 99.7559 433 239 433 c 0xef80
 248 433 271 433 293 427 c 1xdf80
EndSplineSet
EndChar

StartChar: si_Ta
Encoding: 3501 3501 40
Width: 704
GlyphClass: 2
Flags: MW
HStem: -2 142 -1 36<496.5 511.5 480.5 560> 79 86 294 26 356 79<391 398.5> 385 48
VStem: 22 24<9 25> 37 87 177.96 28.14 389 70<189.001 215 116 236.501> 553 111<133.5 218.5>
LayerCount: 2
Fore
SplineSet
165 313 m 0x32e0
 172 321 177.96 332.001 177.96 346.001 c 0
 177.96 372.001 166 385.001 152 385.001 c 0
 135.319 385.001 124.702 374.213 124 353.501 c 0
 123 324.001 113 293.001 78 293.001 c 0
 49 293.001 37 316.583 37 342.001 c 0
 37 392.001 78 433.001 127 433.001 c 0x35e0
 177.344 433.001 206.1 400.001 206.1 353.001 c 0
 206.1 351.355 206.063 349.688 206 348 c 1
 272 420 359 435 423 435 c 0
 562 435 664 334 664 185 c 0
 664 82 610 -1 510 -1 c 0
 483 -1 463 6 454 11 c 1
 454 41 l 1
 462 38 472 35 489 35 c 0x59e0
 534 35 553 98 553 145 c 0
 553 292 458 356 339 356 c 0
 299 356 234 344 200 305 c 1
 221.333 314.333 249 320 281 320 c 0
 382 320 459 268 459 162 c 0
 459 70 392 -2 282 -2 c 0x99e0
 134 -2 140 79 89 79 c 0
 65 79 54.667 53 46 9 c 1
 22 25 l 1
 35 130 104 245 165 313 c 0x32e0
159 259.001 m 1
 127.501 220.502 114 194.001 95 156.001 c 1
 104 163.001 116.667 165.001 128 165.001 c 0x30e0
 165 165.001 195 140.001 263 140.001 c 0x90e0
 338 140.001 389 161.001 389 217.001 c 0
 389 256.001 352 294.001 283 294.001 c 0
 233.649 294.001 191 282.001 159 259.001 c 1
EndSplineSet
EndChar

StartChar: si_Tha
Encoding: 3502 3502 41
Width: 614
GlyphClass: 2
Flags: MW
HStem: -1 141<248 366 248 372.5> 367 38<383.5 424 383.5 426.5> 403 27<203.5 245>
VStem: 33 54<217 289.915> 305 32<467.333 509.333 467.333 513> 514 52<265 287 177.315 334>
LayerCount: 2
Fore
SplineSet
514 317 m 0xbc
 514 351 509 380 492 417 c 1
 477.333 384.333 448 367 405 367 c 0xdc
 341.845 367 305 422 305 488 c 0
 305 538 320 574 347 605 c 1
 408 572 478.965 500.242 515 438 c 0
 553.783 371.012 566 322 566 252 c 0
 566 102.631 450 -1 295 -1 c 0
 150.697 -1 33 92.0605 33 235 c 0
 33 344.829 134 430 245 430 c 1
 245 403 l 1
 162 403 87 347 87 265 c 0
 87 169 191 140 305 140 c 0
 427 140 514 213 514 317 c 0xbc
471 448 m 1
 441 494 395 536 357 564 c 1
 345 546 337 526.667 337 492 c 0
 337 442.667 355 405 412 405 c 0
 436 405 460.764 414.141 471 448 c 1
EndSplineSet
EndChar

StartChar: si_Na
Encoding: 3505 3505 44
Width: 806
GlyphClass: 2
Flags: MW
HStem: -1.22168 32.5684<577.5 586 558.5 635> -1.12219 134.122 281 27.102 347 85.7782 379.552 51.4482<170.231 186.512 121.509 192.231>
VStem: 55.1415 88.6056 222.818 30.203 418 80.1677 635 125<122.805 205.5>
LayerCount: 2
Fore
SplineSet
269 297 m 1xb780
 294.869 306.342 317.104 308.102 345.044 308.102 c 0
 428.955 308.102 498.168 248.943 498.168 168.853 c 0
 498.168 52.8252 398.035 -1.12207 276.065 -1.12207 c 0
 136 -1.12207 24 65 24 176 c 1
 32 167 50 160.128 67 160.128 c 0
 130 160.128 131 206 208 279 c 0
 221 292 222.818 309.123 222.818 322 c 0
 222.818 356 204 379.552 180.462 379.552 c 0
 160 379.552 146 370 143.747 345 c 0
 141.767 323.02 131 294 99 294 c 0
 82 294 55.1416 304 55.1416 339 c 0
 55.1416 384.003 89.0176 431 154 431 c 0x6f80
 219.024 431 253.021 387 253.021 320 c 0
 253.021 319.005 253.015 318.005 253 317 c 1
 303.121 374.781 400.637 432.778 506 432.778 c 0
 646 432.778 760 335.013 760 183 c 0
 760 62.6094 677 -1.22168 593 -1.22168 c 0
 562 -1.22168 540 4 528 9 c 1
 528 38 l 1
 538 34 551 31.3467 566 31.3467 c 0
 606 31.3467 635 78 635 137 c 0
 635 274 532 347 418 347 c 0
 365 347 304 329 269 297 c 1xb780
334 281 m 0
 190 281 189 190 125 147 c 1
 153.728 138.228 190.043 133 248 133 c 0
 360 133 418 177 418 225 c 0
 418 259 390 281 334 281 c 0
EndSplineSet
EndChar

StartChar: si_Pa
Encoding: 3508 3508 46
Width: 616
GlyphClass: 2
Flags: MW
HStem: 0 140<256.5 355.5 256.5 377.32> 299.718 27.2104 390.274 43.3512 402.638 30.4808
VStem: 31.3314 64.6686 55.3252 90.3281 242.682 32.188 321.143 34.0414 502.479 38.5403 507 67.0059
LayerCount: 2
Fore
SplineSet
438.845 433.118 m 0xdb40
 505 433.118 541.017 392.966 541.017 354 c 0xd380
 541.017 334 532.546 316.667 513.998 303 c 1
 554.33 279.473 574.004 240.742 574.004 186.451 c 0
 574.004 55.5615 447.643 0 306.998 0 c 0
 158.588 -0 31.3301 45.9199 31.3301 183.554 c 0xdb40
 31.3301 274.623 99.2285 326.928 206.999 326.928 c 0
 219.999 326.928 229.207 326.289 241.999 325 c 1
 242.46 328.824 242.681 332.491 242.681 336 c 0
 242.681 376 216.999 390.274 193.999 390.274 c 0
 165.999 390.274 151.786 376.439 145.652 358 c 0
 138.999 338 121.999 326.073 96.999 326.073 c 0
 75.999 326.073 55.3242 337 55.3242 367 c 0
 55.3242 408 102.999 433.626 158.188 433.626 c 0xe7
 230.547 433.626 274.869 401 274.869 334 c 0
 274.869 322.637 273.632 309.304 271 296 c 1
 253.181 298.376 218.23 299.718 217 299.718 c 0
 144 299.718 96 274 96 231 c 0
 96 158 206 140 307 140 c 0
 404 140 507 166 507 239 c 0
 507 276 468 301.612 394 301.612 c 0
 370.819 301.612 346.927 299.169 324 295 c 1
 322.072 305.924 321.144 318.267 321.144 328 c 0
 321.144 397 365.957 433.118 438.845 433.118 c 0xdb40
486.998 315 m 1
 498.33 325.703 502.477 338.485 502.477 351 c 0
 502.477 380 478.998 402.638 431.998 402.638 c 0
 389.998 402.638 355.183 381 355.183 336 c 0
 355.183 332.228 355.461 328.864 355.998 325 c 1
 372.953 327.055 387.343 328.098 402.998 328.098 c 0
 435.998 328.098 462.458 323.765 486.998 315 c 1
EndSplineSet
EndChar

StartChar: si_Va
Encoding: 3520 3520 55
Width: 597
GlyphClass: 2
Flags: MW
HStem: 0 140<233 346.5 233 358.5> 277 27<199 211 211 256 199 292> 387 44.5<174 205 133.5 207.5> 551 26<236.333 343.249>
VStem: 33 68<182 207.5> 256.086 36.0601 491 57<264 358.5 194 376.5>
LayerCount: 2
Fore
SplineSet
292 277 m 1
 211 277 l 2
 137 277 101 250 101 213 c 0
 101 151 196 140 270 140 c 0
 423 140 491 211 491 317 c 0
 491 436 410.498 551 276 551 c 0
 196.667 551 136 522 92 470 c 1
 57 470 l 1
 105.667 540 178 577 276 577 c 0
 436.151 577 548 443 548 274 c 0
 548 114 450 0 267 0 c 0
 146 0 33 46 33 165 c 0
 33 250 98 304 199 304 c 2
 256 304 l 1
 256.082 306.041 256.086 306.041 256.086 308 c 0
 256.086 358 224 387 191 387 c 0
 157 387 146 371 140.5 355 c 0
 133.951 335.948 122 319 96 319 c 0
 73 319 56 333.368 56 359 c 0
 56 406 106 431.5 161 431.5 c 0
 249 431.5 292.146 376 292.146 290 c 0
 292.146 286.722 292.101 280.388 292 277 c 1
EndSplineSet
EndChar

StartChar: si_Ha
Encoding: 3524 3524 59
Width: 653
GlyphClass: 2
Flags: MW
HStem: -1.30331 29.5084 -0.762222 139.626 215.412 26.7578 278.021 25.3322 314 118.009 378 54.0334
VStem: 32.9551 61.0449 204 35 239 25<186 195> 318 48.1627 497 108.018
LayerCount: 2
Fore
SplineSet
264 186 m 1xbae0
 270.754 207.011 282.001 215.413 296.001 215.413 c 0
 307.001 215.413 318.001 208.001 318.001 190.001 c 0
 318.001 152.001 250.001 138.864 212.001 138.864 c 0
 158.001 138.864 94.001 158.001 94.001 211.001 c 0
 94.001 243.001 125.001 278.021 205.001 278.021 c 0
 215.954 278.021 227.321 277.354 239.001 276.001 c 1x7ae0
 239.001 360.301 197.351 432.034 118.456 432.034 c 0
 61.7031 432.034 33.0244 394.209 33.0244 364.001 c 0
 33.0244 336.001 52.001 323.001 74.001 323.001 c 0
 90.001 323.001 105.845 332.064 114.001 352.001 c 0
 123.001 374.001 137.001 378.001 152.001 378.001 c 0
 180.001 378.001 204.001 342.001 204.001 303.001 c 1
 199.96 303.225 197.959 303.354 194.001 303.354 c 0
 100.001 303.354 32.9561 246.001 32.9561 155.114 c 0
 32.9561 61.0625 103.483 -0.760742 201.033 -0.760742 c 0x7760
 295.501 -0.760742 366.162 52.9941 366.162 145.352 c 0
 366.162 199.141 341.999 242.171 300.999 242.171 c 0
 291.633 242.171 282.834 240.533 272.999 235.001 c 1
 281.999 264.001 298.999 314.001 373.999 314.001 c 0
 463.999 314.001 496.999 230.001 496.999 166.001 c 0
 496.999 112.001 476.999 28.2061 387.999 28.2061 c 0
 376.353 28.2061 364.327 29.0879 351.999 31.001 c 1
 351.999 2.00098 l 1
 365.992 -0.265625 379.685 -1.30273 392.999 -1.30273 c 0
 515.999 -1.30273 605.018 92.0049 605.018 210.962 c 0
 605.018 328.651 542.173 432.01 430.301 432.01 c 0
 329.087 432.01 248 320 239 195 c 1
 264 186 l 1xbae0
EndSplineSet
EndChar

StartChar: si_DdIi
Encoding: 65678 -1 225
Width: 647
GlyphClass: 3
Flags: MW
HStem: 0 140<178.496 224.501> 285 30<15 125 15 258 177.479 224.001 224.001 258 15 295.001> 388.268 43.8994<192.501 202.641 142.191 214.001> 458 26 580 90<256.001 305.667>
VStem: 45.8805 63.5111 77 61 297 31 377 34 517 44 539.144 58.8564
LayerCount: 2
Fore
SplineSet
258 315 m 1xfda0
 256 350 231.001 388.268 197.001 388.268 c 0
 188.001 388.268 169.204 387.365 154.001 360 c 0
 144.001 342 129.001 335.264 113.001 335.264 c 0
 89.001 335.264 73.2119 351 73.2119 373.122 c 0
 73.2119 413 121.102 432.167 163.28 432.167 c 0
 242.001 432.167 295.001 384 295.001 285 c 1
 224.001 285 l 2
 130.958 285 109.393 234 109.393 210 c 0
 109.393 164 151.991 140 205.001 140 c 0
 263.001 140 297.001 161 297.001 200 c 2
 297.001 221 l 1
 328.001 221 l 1
 328.001 200 l 2
 328.001 164 353.001 140 414.001 140 c 0
 489.001 140 539.145 200 539.145 293.218 c 0xfda0
 539.145 424 442.001 453 324.001 458 c 0
 184.996 463.89 77.001 458 77.001 554 c 0
 77.001 639 175.001 670 307.001 670 c 0
 444.001 670 561.001 643 561.001 544 c 0xfbc0
 561.001 503 534.001 466 482.001 460 c 1
 553.217 426.766 598.001 347 598.001 241 c 0
 598.001 111 547.009 -0.0253906 427.657 -0.0253906 c 0
 363.029 -0.0253906 334.632 28.5205 313.001 59 c 1
 283.407 21.6865 250.001 0 199.001 0 c 0
 97.9844 0 45.8809 81.1904 45.8809 162 c 0
 45.8809 212 71.0488 261.198 125 285 c 1
 15 285 l 1
 15 315 l 1
 258 315 l 1xfda0
411.001 525 m 0
 411.001 502 431.001 484 463.001 484 c 0
 495.001 484 517.001 498 517.001 522 c 0xf9c0
 517.001 553 489.001 567 462.001 567 c 0
 429.001 567 411.001 547 411.001 525 c 0
408.001 479 m 1
 385.001 489 377.001 514 377.001 526 c 0
 377.001 544.667 381.001 560 394.001 574 c 1
 360.668 577.333 324.334 580 287.001 580 c 0
 225.001 580 138.001 568 138.001 528 c 0xfb80
 138.001 504 156.001 492 273.001 489 c 0
 314.999 487.923 374.001 486 408.001 479 c 1
EndSplineSet
Ligature2: "'abvs' Above Base Substitutions in Sinhala lookup 4 subtable" si_Dda si_MatraIi
EndChar

